<?xml version="1.0" standalone="no"?>
<!DOCTYPE svg PUBLIC "-//W3C//DTD SVG 20010904//EN"
 "http://www.w3.org/TR/2001/REC-SVG-20010904/DTD/svg10.dtd">
<svg version="1.0" xmlns="http://www.w3.org/2000/svg"
 width="80.000000pt" height="80.000000pt" viewBox="0 0 80.000000 80.000000"
 preserveAspectRatio="xMidYMid meet">

<g transform="translate(0.000000,80.000000) scale(0.100000,-0.100000)"
fill="#000000" stroke="none">
<path d="M340 780 c-28 -28 -26 -81 3 -108 28 -26 52 -28 61 -5 5 12 -6 28
-36 56 l-43 39 50 -38 c28 -21 55 -42 62 -47 7 -5 15 -1 23 12 9 18 6 23 -22
36 -18 8 -24 13 -13 10 10 -3 40 -8 65 -11 l45 -5 -35 19 c-19 11 -44 29 -54
41 -25 27 -79 28 -106 1z"/>
<path d="M175 686 c-11 -6 -21 -11 -23 -12 -6 -2 -54 -173 -56 -204 -2 -19 -6
-44 -10 -55 -4 -11 1 -5 11 13 11 22 22 31 32 27 9 -4 28 -9 43 -12 17 -3 28
-14 32 -29 6 -21 9 -23 29 -14 20 10 20 10 5 -3 -24 -19 -23 -32 4 -49 19 -13
22 -25 26 -110 3 -67 0 -111 -11 -148 -14 -49 -14 -53 4 -71 23 -23 33 -24 53
-4 36 37 56 193 36 290 -7 33 -15 74 -17 92 -3 18 -12 34 -22 36 -14 4 -14 5
2 6 21 1 23 34 1 51 -8 8 -20 23 -26 34 -5 12 4 4 22 -17 40 -47 107 -86 156
-91 22 -2 55 -7 74 -11 33 -6 34 -6 16 9 -11 9 -27 16 -36 16 -8 0 -21 9 -27
19 -7 11 -26 22 -43 26 -34 7 -94 55 -111 88 -8 14 -8 18 0 13 14 -9 14 29 0
55 -7 15 -20 20 -42 19 -50 -3 -57 -1 -51 14 8 20 -45 36 -71 22z m152 -86 c4
-12 3 -12 -5 -2 -5 8 -18 12 -28 10 -14 -3 -19 -12 -17 -33 1 -28 1 -29 -9 -8
-8 17 -7 27 2 38 16 19 52 16 57 -5z"/>
<path d="M348 443 c7 -3 16 -2 19 1 4 3 -2 6 -13 5 -11 0 -14 -3 -6 -6z"/>
<path d="M151 407 c-13 -21 -12 -21 5 -5 10 10 16 20 13 22 -3 3 -11 -5 -18
-17z"/>
<path d="M70 361 c0 -17 4 -32 8 -35 4 -2 6 11 4 30 -5 42 -12 45 -12 5z"/>
<path d="M601 386 c10 -9 89 -46 89 -41 0 5 -75 45 -86 45 -4 0 -5 -2 -3 -4z"/>
<path d="M155 344 c-18 -16 -22 -22 -9 -15 18 9 53 42 43 41 -2 -1 -17 -12
-34 -26z"/>
<path d="M700 336 c0 -3 9 -10 20 -16 11 -6 20 -8 20 -6 0 3 -9 10 -20 16 -11
6 -20 8 -20 6z"/>
</g>
</svg>
